<?xml version="1.0" encoding="UTF-8" standalone="no"?>
<!DOCTYPE svg PUBLIC "-//W3C//DTD SVG 1.1//EN" "http://www.w3.org/Graphics/SVG/1.1/DTD/svg11.dtd">
<svg width="100%" height="100%" viewBox="0 0 500 500" version="1.1" xmlns="http://www.w3.org/2000/svg" xmlns:xlink="http://www.w3.org/1999/xlink" xml:space="preserve" xmlns:serif="http://www.serif.com/" style="fill-rule:evenodd;clip-rule:evenodd;stroke-linejoin:round;stroke-miterlimit:2;">
    <g transform="matrix(1,0,0,-1,0,500)">
        <g transform="matrix(1,0,0,1,55.7978,50.3984)">
            <path d="M76.488,365.453L373.363,365.453C380.41,365.453 387.568,365.823 394.604,365.453C403.083,365.007 411.816,357.319 411.816,347.875L411.816,54.784C411.816,50.653 412.033,46.457 411.816,42.333C411.74,40.898 411.464,39.132 411.01,37.768C409.289,32.606 405.252,27.645 399.95,25.878C393.507,23.73 384.196,24.633 376.659,24.633C376.659,18.228 377.869,7.478 372.875,3.393C369.529,0.655 364.715,1.195 360.668,1.195C354.093,1.195 329.638,0.422 325.048,1.952C323.464,2.48 321.818,3.431 320.751,4.735C316.755,9.619 318.566,18.034 318.066,24.389C310.411,25.11 295.803,24.633 287.67,24.633L134.35,24.633C123.321,24.633 106.37,25.108 95.653,24.389C95.653,20.003 96.297,12.379 95.141,8.91C92.356,0.555 82.647,1.195 75.512,1.195L61.84,1.195C57.872,1.195 48.432,0.704 45.092,1.293C43.029,1.657 40.852,2.596 39.501,4.247C35.549,9.078 36.816,18.113 36.816,24.633C31.931,24.633 20.378,24.123 16.796,24.755C10.74,25.824 5.93,29.903 3.075,35.204C2,37.201 1.657,39.74 1.269,41.942C0.728,45.008 1.171,48.5 1.171,51.61L1.171,65.648L1.415,110.082L1.415,347.143C1.415,356.634 8.731,363.85 17.26,365.356C20.492,365.926 68.842,365.453 76.488,365.453ZM55.858,351.293L26.684,351.293C21.89,351.293 17.781,352.531 15.331,347.143L15.087,281.713L15.087,82.494L15.209,62.353L15.331,42.211C16.618,37.654 21.217,38.305 24.486,38.305L382.152,38.305C384.885,38.305 392.723,37.808 394.872,38.524C395.762,38.821 396.558,39.445 397.143,40.16C397.598,40.717 397.946,41.455 398.07,42.162C398.608,45.207 398.144,53.403 398.144,56.981L398.144,331.151C398.144,334.931 398.624,344.297 398.07,347.436C397.946,348.143 397.598,348.881 397.143,349.438C396.558,350.153 395.762,350.777 394.872,351.073C392.776,351.772 385.29,351.293 382.641,351.293L340.771,351.293L321.483,351.537L90.038,351.537L55.858,351.293ZM50.487,24.389L50.487,15.356L82.226,15.356L82.226,24.389C79.082,24.729 72.61,24.819 66.178,24.829C59.747,24.838 53.356,24.768 50.487,24.389ZM331.493,24.389L331.249,15.356L363.476,15.356L363.476,24.633L362.499,24.633L331.493,24.389Z" style="fill-rule:nonzero;"/>
        </g>
        <g transform="matrix(1,0,0,1,73.9512,127.827)">
            <path d="M1,1.324L347.436,1.324C342.362,0.787 337.459,1.08 332.665,1.08L20.653,1.08C14.259,1.08 7.791,0.801 1,1.324Z" style="fill:url(#_Linear1);fill-rule:nonzero;"/>
        </g>
        <g transform="matrix(1,0,0,1,74.6165,378.692)">
            <path d="M5.95,15.351L205.047,15.351C210.392,15.351 216.793,15.631 216.399,8.149C215.975,0.101 209.77,1.191 203.826,1.191L51.482,1.191C44.968,1.191 9.251,0.702 5.925,1.289C-0.381,2.402 -0.906,13.924 5.95,15.351Z" style="fill-rule:nonzero;"/>
        </g>
        <g transform="matrix(1,0,0,1,206.981,103.736)">
            <path d="M5.153,15.307C7.02,15.636 47.413,15.689 50.197,15.38C54.415,14.911 55.226,12.18 55.226,8.446C55.226,5.44 54.912,1.917 50.832,1L5.422,1C3.841,1.546 2.863,1.889 2.052,2.88C0.738,4.487 1.027,6.764 1.027,8.69C1.027,11.968 1.326,14.631 5.153,15.307Z" style="fill-rule:nonzero;"/>
        </g>
        <g transform="matrix(1,0,0,1,67.8173,128.15)">
            <path d="M1.03,12.841L1.03,224.022C1.03,228.173 0.486,232.321 4.009,235.204C4.652,235.73 5.541,236.321 6.89,236.596L354.546,236.596C357.211,235.929 359.19,233.773 359.917,231.591C360.649,229.395 360.161,216.988 360.161,213.158L360.161,6.859C358.997,3.354 357.182,1.992 353.569,1L7.134,1C0.703,2.608 1.03,7.785 1.03,12.841ZM13.726,215.111L69.878,214.623C73.645,214.623 77.607,214.156 80.669,214.696C81.28,214.804 95.676,222.415 100.64,223.656L100.64,224.145L13.726,224.145L13.726,215.111ZM182.549,222.68C185.65,221.646 189.002,220.125 191.875,218.578C193.121,217.907 198.305,214.858 199.224,214.696C202.384,214.139 210.932,214.623 215.142,214.623L229.79,214.623L259.331,214.867L259.819,214.867L259.819,223.9L202.935,224.145L179.253,224.145C180.355,223.227 181.547,223.014 182.549,222.68ZM272.515,223.9L272.515,215.111L275.689,215.111L302.788,214.867L324.273,214.867L345.513,215.111L347.71,215.111L347.71,223.9C342.861,224.326 338.365,224.145 333.916,224.145L307.061,224.145C298.509,224.145 280.215,224.625 272.515,223.9ZM131.646,216.332C115.519,216.088 92.599,207.057 80.571,197.216C78.287,195.346 75.947,193.543 73.662,191.674C72.835,190.997 70.954,188.811 70.366,188.012C73.889,188.012 77.04,187.301 79.961,187.816C81.485,188.085 84.171,190.595 85.43,191.625C88.543,194.172 92.32,196.18 95.83,198.07C106.441,203.784 121.769,208.764 134.331,208.764L134.819,216.332L131.646,216.332ZM145.562,216.088L145.562,209.008C146.827,208.746 156.702,207.523 158.526,207.201C163.654,206.296 168.611,204.539 173.516,202.904C179.709,200.84 185.035,197.265 190.703,194.213C192.871,193.046 198.092,188.397 199.541,187.914C201.363,187.307 207.274,187.768 210.015,187.768C208.477,190.449 204.663,193.179 202.593,194.872C191.66,203.817 177.665,211.263 163.604,213.744C157.73,214.781 152.066,216.088 145.562,216.088ZM13.726,203.393L13.726,192.65L16.167,192.65L40.825,192.895C43.631,192.895 53.225,192.463 54.57,193.188C56.163,194.045 58.938,197.457 60.357,198.876C61.247,199.767 64.585,202.655 65.239,203.637L56.939,203.393C53.715,203.737 44.357,203.826 35.068,203.834C25.779,203.842 16.559,203.769 13.726,203.393ZM214.898,203.148C218.105,201.287 224.502,193.591 226.152,193.041C227.828,192.483 255.152,192.895 259.819,192.895L259.819,203.393L259.331,203.393C256.134,203.736 247.136,203.824 238.203,203.832C229.271,203.84 220.404,203.768 217.583,203.393L214.898,203.637L214.898,203.148ZM272.515,203.393L272.515,193.139L347.466,192.895L347.71,203.393L319.146,203.637L299.37,203.637L285.943,203.515L272.515,203.393ZM118.95,194.115L102.593,188.256L102.593,187.768L120.171,187.768L119.927,193.871L119.683,194.115L118.95,194.115ZM167.046,193.627L167.046,187.768L179.253,187.768L179.253,188.256L167.046,193.627ZM13.726,170.678C17.346,170.678 37.367,170.271 38.53,170.897C39.785,171.573 42.72,178.623 44.732,180.688L39.605,180.688L26.909,180.81L14.214,180.932L13.726,180.932L13.726,170.678ZM241.582,171.117C242.72,170.186 256.834,170.678 259.819,170.678L259.819,180.932L235.65,180.932C236.893,178.948 240.869,171.701 241.582,171.117ZM272.515,180.688L272.515,170.678L347.71,170.678L347.71,180.932L292.046,180.932L282.28,180.81L272.515,180.688ZM51.812,164.33C53.349,164.07 54.501,164.032 55.654,164.028C56.806,164.024 57.958,164.054 59.38,164.33C61.449,166.532 62.692,168.962 64.336,170.971C66.437,173.538 68.767,175.895 71.099,178.734C69.157,178.734 62.186,179.026 61.504,178.686C60.142,178.004 52.184,166.304 51.812,164.33ZM87.7,178.734C86.014,176.729 80.673,173.321 78.911,170.678L121.636,170.678L121.148,178.979L119.927,178.979L103.814,178.856L87.7,178.734ZM166.069,178.49L164.605,170.678L200.737,170.678C199.803,172.379 193.617,178.483 191.948,178.979L166.069,178.979L166.069,178.49ZM209.526,178.734C211.718,175.812 219.619,166.93 220.269,164.33L228.569,164.33C228.134,166.362 220.709,177.189 219.292,178.734L209.526,178.734ZM75.664,158.275C80.776,156.997 87.032,153.1 92.583,153.1L124.566,153.1C123.943,155.927 123.101,158.264 123.101,161.156L71.343,161.156C70.195,159.301 74.833,158.483 75.664,158.275ZM161.431,160.912L158.989,153.1L184.868,153.1L207.818,153.344L213.433,153.344C212.306,155.172 209.487,159.283 208.55,160.912C205.29,161.258 194.954,161.347 184.698,161.355C174.441,161.362 164.263,161.289 161.431,160.912ZM13.726,158.959L13.726,148.705L29.107,148.705L32.769,158.959C29.708,159.295 26.435,159.387 23.169,159.399C19.903,159.41 16.645,159.342 13.726,158.959ZM247.124,159.203C248.994,156.141 249.234,151.809 250.542,148.705L259.819,148.705L259.819,159.203L247.124,159.203ZM272.515,158.959L272.515,148.705L347.71,148.705L347.71,158.959C342.861,159.385 338.365,159.203 333.916,159.203L307.061,159.203C298.509,159.203 280.215,159.683 272.515,158.959ZM46.685,155.297C45.302,151.213 43.531,147.862 42.363,144.359C41.775,142.594 40.792,136.432 40.337,135.033L47.661,135.033L47.905,135.277C47.905,139.117 52.613,151.284 54.253,155.053L46.685,155.297ZM225.884,155.297C226.177,152.514 231.987,140.584 231.987,135.033L239.556,135.033C237.908,144.674 237.3,144.218 234.697,152.025C234.431,152.825 234.207,154.332 233.452,155.297L225.884,155.297ZM136.284,149.193C133.245,148.949 130.82,147.771 128.569,147.021C116.651,143.048 107.061,128.87 107.72,116.356C107.979,111.428 108.888,106.235 111.26,101.83C117.162,90.868 128.832,83.339 141.533,84.008C160.389,85 173.39,101.054 172.417,119.53C172.251,122.689 171.185,125.814 170.195,128.783C168.882,132.723 166.209,136.151 163.628,139.306C159.071,144.875 149.817,148.822 142.754,149.193C140.772,149.298 138.757,149.193 136.284,149.193ZM106.255,143.822C108.833,141.462 109.908,139.891 111.626,141.991C111.995,142.442 112.592,142.817 112.847,143.822L106.255,143.822ZM172.515,137.206C173.709,136.609 188.473,142.587 191.46,143.334L191.46,143.822L167.534,143.822C168.704,142.096 171.471,137.728 172.515,137.206ZM13.726,137.23L13.726,126.244L24.956,126.244L25.933,137.23L13.726,137.23ZM254.937,137.23L253.96,136.986L254.937,126.488L259.819,126.732L259.819,137.23L254.937,137.23ZM272.515,136.986L272.515,126.732L347.71,126.732L347.71,136.986C342.861,137.412 338.365,137.23 333.916,137.23L307.061,137.23C298.509,137.23 280.215,137.711 272.515,136.986ZM38.872,125.756C37.832,122.3 39.116,110.086 39.116,105.98L46.441,105.98C46.441,108.668 46.061,110.636 45.952,112.694C45.731,116.891 46.196,121.092 46.196,125.756L38.872,125.756ZM233.452,125.756C234.14,120.074 234.205,114.794 233.941,109.765C233.891,108.828 233.623,107.891 233.623,106.957C233.623,106.691 233.638,106.403 233.867,106.225C234.675,105.596 239.065,105.98 240.776,105.98C240.776,107.564 241.213,108.534 241.265,109.521C241.5,113.991 241.5,118.722 241.265,123.192C241.233,123.796 241.021,124.432 241.021,125.512L240.776,125.756L233.452,125.756ZM13.726,115.014L13.726,104.027L25.444,103.783L24.712,114.77L13.726,115.014ZM299.126,114.77L291.314,114.77L272.515,114.525L272.515,104.271L286.919,104.516L296.929,104.394L306.939,104.271L327.202,104.394L347.466,104.516L347.71,114.77L327.691,114.77C324.538,115.11 318.881,115.202 313.256,115.212C307.63,115.223 302.037,115.152 299.126,114.77ZM255.181,114.77L254.693,104.271L259.819,104.271L259.819,114.77L255.181,114.77ZM57.915,105.492L102.105,105.248L103.081,105.248L102.593,108.666L57.183,113.061C57.183,110.156 57.559,108.037 57.915,105.492ZM221.001,106.713L214.898,105.736L214.898,105.248C217.208,105.248 221.908,104.62 222.71,106.713L221.001,106.713ZM177.3,106.469C176.829,105.876 176.812,105.75 176.812,105.248L189.019,105.248L189.019,105.492L177.3,106.469ZM41.069,96.947C41.069,95.233 41.482,94.327 41.631,93.48C42.782,86.96 45.621,81.073 47.905,74.486L55.718,74.486C54.966,77.332 53.55,79.404 52.788,81.688C51.784,84.7 48.394,93.773 48.394,96.947L41.069,96.947ZM231.987,96.947C231.011,91.09 227.921,81.844 225.444,77.245C225.165,76.727 224.243,75.527 224.443,74.926C224.646,74.32 231.684,74.045 232.329,75.243C233.964,78.279 239.312,93.503 239.312,96.947L231.987,96.947ZM205.376,96.215L188.897,96.093L172.417,95.971C171.67,95.222 171.037,94.414 171.148,93.749C171.295,92.865 174.902,89.768 175.835,88.646C177.689,87.72 186.011,88.158 188.164,88.158L217.827,88.158L220.513,96.459L205.376,96.215ZM61.821,88.158C66.246,88.158 90.531,87.987 92.29,88.573C93.575,89.002 99.28,94.988 101.372,95.971L84.893,96.093L68.413,96.215L59.624,96.215L61.821,88.158ZM13.726,92.553L13.726,81.811L29.839,81.811L27.398,92.553L13.726,92.553ZM252.495,92.553L249.566,82.055L259.819,82.055L259.819,92.553L252.495,92.553ZM272.515,82.055L347.71,82.055L347.71,92.553L272.515,92.553L272.515,82.055ZM130.181,79.369L126.519,70.092L144.585,70.092L143.12,78.148C140.776,78.148 131.508,78.202 130.181,79.369ZM66.46,78.637L70.855,70.336L71.099,70.092L76.714,70.092L82.573,78.637L66.46,78.637ZM190.484,70.58L198.052,70.58C211.115,69.744 208.164,69.941 212.432,76.342C212.746,76.812 212.913,77.633 213.433,78.393L185.357,78.637L184.868,78.637L190.484,70.58ZM13.482,70.092L13.482,59.838L39.605,59.838C38.036,62.003 35.564,67.47 34.722,70.092L13.482,70.092ZM245.171,70.092L239.8,59.838L259.819,59.838L259.819,70.092L245.171,70.092ZM272.515,70.092L272.515,59.838L347.71,59.838L347.71,70.092L272.515,70.092ZM58.965,55.883C61.125,53.243 63.324,50.636 65.484,47.997C65.89,47.5 66.372,46.713 67.193,46.166C69.33,45.876 75.401,45.509 77.202,46.166C76.3,47.815 72.102,52.008 70.61,53.002C68.139,55.039 61.583,65.053 60.82,65.307C58.982,65.919 55.54,65.453 53.032,65.453C54.715,63.163 56.993,58.293 58.965,55.883ZM219.048,65.453C217.126,63.169 216.109,60.871 214.605,59.032C213.066,57.151 211.554,55.249 210.015,53.368C208.785,51.865 203.412,47.247 202.691,46.166L213.433,46.166C214.946,48.808 217.17,50.639 218.804,52.636C221.378,55.782 225.694,61.268 227.105,65.453L219.048,65.453ZM118.706,52.514L150.933,52.514L148.003,60.57L147.759,60.814L135.552,60.814C120.045,60.814 123.578,62.745 118.706,52.514ZM13.482,37.377L24.712,37.377L29.107,37.499L33.501,37.621L55.962,37.621C55.172,39.087 48.371,47.596 47.808,47.899C46.748,48.47 17.742,48.119 13.482,48.119L13.482,37.377ZM224.419,37.621L227.837,37.621C231,37.28 237.524,37.189 244.008,37.179C250.491,37.17 256.934,37.241 259.819,37.621L259.819,48.119L232.72,48.119L224.419,37.621ZM272.515,37.621L274.712,37.621L289.36,37.499L304.009,37.377L325.737,37.499L347.466,37.621L347.71,48.119L272.515,48.119L272.515,37.621ZM113.091,42.992L109.429,38.109C111.891,37.658 116.314,35.985 118.438,35.277C120.648,34.54 123.02,34.239 125.298,33.837C134.83,32.155 144.298,32.178 153.838,33.861C155.951,34.234 159.834,34.503 162.163,35.424C160.708,37.972 157.84,40.049 156.792,43.236L133.355,43.236L113.091,42.992ZM85.015,37.133L77.935,36.645C78.906,34.883 87.358,29.364 89.116,28.417C99.914,22.603 109.401,18.418 121.636,16.259C125.693,15.543 129.694,14.672 134.331,14.672L134.575,21.996C126.269,21.996 108.56,26.305 101.69,30.004C99.247,31.319 96.759,32.546 94.317,33.861C92.734,34.713 91.303,36.396 89.605,36.962C88.361,37.376 86.8,37.133 85.015,37.133ZM190.239,37.133C187.253,35.396 184.897,33.571 182.354,32.201C172.652,26.977 157.044,22.24 145.562,22.24L145.318,21.996L145.318,14.428C148.046,14.428 150.341,14.891 152.422,15.258C155.677,15.832 158.934,16.393 162.188,16.967C174.715,19.178 192.525,28.116 202.202,36.889L190.239,37.133ZM13.726,26.146L13.726,15.404L83.062,15.404L83.062,15.893C79.616,17.9 75.926,19.833 73.223,22.045C72.244,22.846 69.077,25.506 67.681,25.902L14.458,25.902L13.726,26.146ZM211.48,25.658C207.056,23.049 200.569,17.496 195.855,15.893L195.855,15.404L259.819,15.404L259.819,25.902L259.087,25.902L235.283,25.78L211.48,25.658ZM272.515,25.658L272.515,15.404L347.71,15.404L347.71,25.658C342.861,26.084 338.365,25.902 333.916,25.902L307.061,25.902C298.509,25.902 280.215,26.383 272.515,25.658Z" style="fill-rule:nonzero;"/>
        </g>
        <g transform="matrix(1,0,0,1,181.353,217.994)">
            <path d="M34.784,51.244C46.48,47.346 53.82,34.864 51.679,22.729C51.259,20.347 50.818,17.886 49.652,15.722C48.391,13.379 46.881,11.466 45.209,9.423C42.981,6.699 39.399,4.052 35.688,2.709C33.566,2.049 32.371,1.818 31.247,1.659C30.123,1.499 29.07,1.41 27.143,1C20.259,1 15.008,3.393 10.175,7.348C-6.467,20.964 0.406,48.276 23.725,52.392C25.808,52.759 28.042,52.534 30.097,52.172C31.668,51.895 33.254,51.754 34.784,51.244Z" style="fill-rule:nonzero;"/>
        </g>
        <g transform="matrix(1,0,0,1,202.756,179.562)">
            <path d="M1.102,9.504L12.821,9.504L13.137,9.23L16.09,1.137L15.994,1L15.018,1C14.962,1 14.916,1.046 14.916,1.102C14.916,1.158 14.962,1.204 15.018,1.204L15.994,1.204L15.899,1.067L12.969,9.124L12.749,9.331L1.102,9.301C1.046,9.301 1,9.346 1,9.403C1,9.459 1.046,9.504 1.102,9.504Z" style="fill-rule:nonzero;"/>
        </g>
        <g transform="matrix(1,0,0,1,215.695,179.562)">
            <path d="M2.054,1.003L1.077,1.247C1.023,1.261 0.989,1.316 1.003,1.371C1.017,1.425 1.072,1.458 1.127,1.445L2.103,1.201C2.158,1.187 2.191,1.132 2.177,1.077C2.164,1.023 2.108,0.989 2.054,1.003Z" style="fill-rule:nonzero;"/>
        </g>
        <g transform="matrix(1,0,0,1,185.91,179.562)">
            <path d="M2.103,1.247L1.127,1.003C1.072,0.989 1.017,1.023 1.003,1.077C0.989,1.132 1.023,1.187 1.077,1.201L2.054,1.445C2.108,1.458 2.164,1.425 2.177,1.371C2.191,1.316 2.158,1.261 2.103,1.247Z" style="fill-rule:nonzero;"/>
        </g>
        <g transform="matrix(1,0,0,1,185.432,179.562)">
            <path d="M1.58,1L1.092,1L1,1.145C1.77,2.762 3.377,6.486 3.507,6.759C4.161,8.138 4.676,8.795 5.482,9.18C6.275,9.56 7.319,9.669 9.449,9.646C9.074,9.65 15.288,9.504 17.937,9.504C17.994,9.504 18.039,9.458 18.039,9.402C18.039,9.346 17.994,9.301 17.937,9.301C15.285,9.301 9.07,9.447 9.447,9.443C7.348,9.466 6.325,9.358 5.57,8.997C4.815,8.636 4.326,8.013 3.69,6.672C3.563,6.403 1.956,2.68 1.183,1.058L1.092,1.203L1.58,1.203C1.636,1.203 1.682,1.158 1.682,1.102C1.682,1.045 1.636,1 1.58,1Z" style="fill-rule:nonzero;"/>
        </g>
        <g transform="matrix(1,0,0,1,202.267,187.863)">
            <path d="M1.102,1.204L1.59,1.204C1.646,1.204 1.692,1.158 1.692,1.102C1.692,1.046 1.646,1 1.59,1L1.102,1C1.046,1 1,1.046 1,1.102C1,1.158 1.046,1.204 1.102,1.204Z" style="fill-rule:nonzero;"/>
        </g>
        <g transform="matrix(1,0,0,1,185.91,179.562)">
            <path d="M31.864,1L1.102,1C1.046,1 1,1.046 1,1.102C1,1.158 1.046,1.204 1.102,1.204L31.864,1.204C31.92,1.204 31.965,1.158 31.965,1.102C31.965,1.046 31.92,1 31.864,1Z" style="fill-rule:nonzero;"/>
        </g>
        <g transform="matrix(1,0,0,1,370.724,164.67)">
            <path d="M44.559,1L1.102,1C1.046,1 1,1.046 1,1.102C1,1.158 1.046,1.204 1.102,1.204L44.559,1.204C44.615,1.204 44.661,1.158 44.661,1.102C44.661,1.046 44.615,1 44.559,1Z" style="fill-rule:nonzero;"/>
        </g>
        <g transform="matrix(1,0,0,1,341.427,164.67)">
            <path d="M30.399,1L1.102,1C1.046,1 1,1.046 1,1.102C1,1.158 1.046,1.204 1.102,1.204L30.399,1.204C30.455,1.204 30.5,1.158 30.5,1.102C30.5,1.046 30.455,1 30.399,1Z" style="fill-rule:nonzero;"/>
        </g>
        <g transform="matrix(1,0,0,1,339.23,164.67)">
            <path d="M3.299,1L1.102,1L1,1.102L1,11.6L1.102,11.702L76.297,11.702L76.399,11.597L76.155,1.099C76.153,1.043 76.107,0.999 76.051,1C75.994,1.001 75.95,1.048 75.951,1.104L76.195,11.602L76.297,11.498L1.102,11.498L1.204,11.6L1.204,1.102L1.102,1.204L3.299,1.204C3.355,1.204 3.401,1.158 3.401,1.102C3.401,1.046 3.355,1 3.299,1Z" style="fill-rule:nonzero;"/>
        </g>
        <g transform="matrix(1,0,0,1,179.855,170.089)">
            <path d="M21.318,1.244L1.054,1C1.025,1 1,1.023 1,1.053C1,1.082 1.023,1.107 1.053,1.107L21.317,1.351C21.346,1.352 21.37,1.328 21.371,1.298C21.371,1.269 21.347,1.245 21.318,1.244Z" style="fill-rule:nonzero;"/>
        </g>
        <g transform="matrix(1,0,0,1,179.806,170.041)">
            <path d="M1.101,1.204L11.232,1.326L21.364,1.448C21.42,1.448 21.467,1.403 21.467,1.347C21.468,1.291 21.423,1.245 21.367,1.244L1.103,1C1.047,0.999 1.001,1.044 1,1.101C0.999,1.157 1.044,1.203 1.101,1.204Z" style="fill-rule:nonzero;"/>
        </g>
        <g transform="matrix(1,0,0,1,211.301,103.635)">
            <path d="M46.512,1L1.102,1C1.046,1 1,1.046 1,1.102C1,1.158 1.046,1.204 1.102,1.204L46.512,1.204C46.568,1.204 46.614,1.158 46.614,1.102C46.614,1.046 46.568,1 46.512,1Z" style="fill-rule:nonzero;"/>
        </g>
        <g transform="matrix(1,0,0,1,206.879,103.635)">
            <path d="M5.49,1.006C3.418,1.721 2.792,2.042 2.076,2.917C1.302,3.863 1.022,5.027 1.002,6.724C0.998,7.051 1.001,7.32 1.014,7.89C1.024,8.357 1.027,8.549 1.027,8.792C1.027,13.131 1.878,14.916 5.237,15.508C7.096,15.836 47.488,15.896 50.31,15.583C54.139,15.157 55.43,13.021 55.43,8.548C55.43,4.104 54.434,1.784 50.956,1.003C50.901,0.99 50.847,1.025 50.834,1.079C50.822,1.134 50.856,1.189 50.911,1.201C54.268,1.955 55.226,4.188 55.226,8.548C55.226,12.93 53.994,14.969 50.288,15.381C47.483,15.692 7.11,15.632 5.273,15.308C2.038,14.737 1.231,13.045 1.231,8.792C1.231,8.547 1.227,8.354 1.217,7.886C1.205,7.318 1.201,7.051 1.205,6.727C1.225,5.072 1.495,3.948 2.233,3.046C2.917,2.21 3.52,1.902 5.557,1.198C5.61,1.179 5.638,1.122 5.62,1.068C5.601,1.015 5.543,0.987 5.49,1.006Z" style="fill-rule:nonzero;"/>
        </g>
        <g transform="matrix(1,0,0,1,211.301,103.194)">
            <path d="M46.525,1.442C44.056,1.112 36.42,0.991 24.087,1.001C11.911,1.01 3.932,1.138 1.091,1.441C1.035,1.447 0.995,1.498 1.001,1.554C1.007,1.609 1.057,1.65 1.113,1.644C3.943,1.342 11.922,1.214 24.088,1.204C36.404,1.194 44.043,1.316 46.499,1.644C46.554,1.651 46.605,1.612 46.613,1.556C46.62,1.5 46.581,1.449 46.525,1.442Z" style="fill-rule:nonzero;"/>
        </g>
        <g transform="matrix(1,0,0,1,136.35,80.6855)">
            <path d="M223.514,1L1.102,1C1.046,1 1,1.046 1,1.102C1,1.158 1.046,1.203 1.102,1.203L223.514,1.203C223.57,1.203 223.615,1.158 223.615,1.102C223.615,1.046 223.57,1 223.514,1Z" style="fill-rule:nonzero;"/>
        </g>
        <g transform="matrix(1,0,0,1,372.189,80.6854)">
            <path d="M32.108,1.244L16.605,1.122L1.103,1C1.046,1 1,1.045 1,1.101C1,1.157 1.045,1.203 1.101,1.203L32.107,1.448C32.163,1.448 32.209,1.403 32.209,1.347C32.21,1.29 32.165,1.245 32.108,1.244Z" style="fill-rule:nonzero;"/>
        </g>
        <g transform="matrix(1,0,0,1,372.189,80.6853)">
            <path d="M1.101,1.204L32.107,1.448C32.163,1.448 32.209,1.403 32.209,1.347C32.21,1.291 32.165,1.245 32.108,1.244L16.606,1.122L1.103,1C1.046,1 1,1.045 1,1.101C1,1.157 1.045,1.203 1.101,1.204Z" style="fill-rule:nonzero;"/>
        </g>
        <g transform="matrix(1,0,0,1,371.945,71.6521)">
            <path d="M32.352,10.481L33.328,10.481L33.43,10.379L33.43,1.102L33.328,1L1.102,1L1,1.105L1.244,10.138C1.246,10.194 1.292,10.238 1.349,10.237C1.405,10.235 1.449,10.188 1.448,10.132L1.204,1.099L1.102,1.204L33.328,1.204L33.227,1.102L33.227,10.379L33.328,10.277L32.352,10.277C32.296,10.277 32.25,10.323 32.25,10.379C32.25,10.435 32.296,10.481 32.352,10.481Z" style="fill-rule:nonzero;"/>
        </g>
    </g>
    <defs>
        <linearGradient id="_Linear1" x1="0" y1="0" x2="1" y2="0" gradientUnits="userSpaceOnUse" gradientTransform="matrix(56.8517,170.089,-170.089,56.8517,145.67,-83.7206)"><stop offset="0" style="stop-color:rgb(57,57,59);stop-opacity:1"/><stop offset="1" style="stop-color:rgb(63,59,65);stop-opacity:1"/></linearGradient>
    </defs>
</svg>
