<svg xmlns="http://www.w3.org/2000/svg" viewBox="0 0 100 100" fill="none" stroke="currentColor" stroke-width="2.5" stroke-linecap="round" stroke-linejoin="round">
  <!-- Building outline with roof -->
  <path d="M 20 45 L 50 25 L 80 45 L 80 80 Q 80 82 78 82 L 22 82 Q 20 82 20 80 L 20 45" fill="none" stroke="currentColor"/>

  <!-- Person (left side, larger) -->
  <circle cx="32" cy="48" r="5" fill="none" stroke="currentColor"/>
  <path d="M 32 53 L 32 63" fill="none" stroke="currentColor" stroke-width="2.5"/>
  <path d="M 26 57 L 38 57" fill="none" stroke="currentColor" stroke-width="2.5"/>
  <path d="M 30 63 L 26 72" fill="none" stroke="currentColor" stroke-width="2.5"/>
  <path d="M 34 63 L 38 72" fill="none" stroke="currentColor" stroke-width="2.5"/>

  <!-- Light bulb (right side, larger) -->
  <circle cx="68" cy="50" r="6" fill="none" stroke="currentColor" stroke-width="2.5"/>
  <path d="M 64 56 Q 64 58 66 58 L 70 58 Q 72 58 72 56" fill="none" stroke="currentColor" stroke-width="2.5"/>
  <rect x="66" y="58" width="4" height="3" rx="0.5" fill="none" stroke="currentColor" stroke-width="2"/>

  <!-- Heat waves from person - left side -->
  <path d="M 25 48 Q 18 46 15 50" fill="none" stroke="currentColor" stroke-width="2"/>
  <path d="M 24 58 Q 15 60 12 65" fill="none" stroke="currentColor" stroke-width="2"/>

  <!-- Heat waves from light bulb - right side -->
  <path d="M 75 48 Q 82 46 88 50" fill="none" stroke="currentColor" stroke-width="2"/>
  <path d="M 76 56 Q 84 60 90 62" fill="none" stroke="currentColor" stroke-width="2"/>
</svg>
