<svg viewBox="0 0 100 100" xmlns="http://www.w3.org/2000/svg">
  <!-- Background circle for visual balance -->
  <circle cx="50" cy="50" r="46" fill="none" stroke="currentColor" stroke-width="4" opacity="0.1"/>

  <!-- Device/Heat pump representation (simplified outline) -->
  <rect x="30" y="35" width="40" height="40" rx="6" ry="6" fill="none" stroke="currentColor" stroke-width="5" opacity="0.7"/>

  <!-- Inner device detail -->
  <circle cx="50" cy="55" r="12" fill="none" stroke="currentColor" stroke-width="4" opacity="0.4"/>

  <!-- Connection waves/signals emanating from device -->
  <path d="M50 20 Q50 15 45 15" fill="none" stroke="currentColor" stroke-width="4" stroke-linecap="round" opacity="0.8"/>
  <path d="M50 20 Q50 15 55 15" fill="none" stroke="currentColor" stroke-width="4" stroke-linecap="round" opacity="0.8"/>
  <path d="M50 23 Q50 19 47 19" fill="none" stroke="currentColor" stroke-width="4" stroke-linecap="round" opacity="0.8"/>
  <path d="M50 23 Q50 19 53 19" fill="none" stroke="currentColor" stroke-width="4" stroke-linecap="round" opacity="0.8"/>

  <!-- Data flow indicators (bidirectional arrows) -->
  <path d="M18 45 L25 45 L22 42 M25 45 L22 48" stroke="currentColor" stroke-width="4" stroke-linecap="round" opacity="0.8" fill="none"/>
  <path d="M18 55 L25 55 L22 52 M25 55 L22 58" stroke="currentColor" stroke-width="4" stroke-linecap="round" opacity="0.6" fill="none"/>

  <path d="M82 45 L75 45 L78 42 M75 45 L78 48" stroke="currentColor" stroke-width="4" stroke-linecap="round" opacity="0.8" fill="none"/>
  <path d="M82 55 L75 55 L78 52 M75 55 L78 58" stroke="currentColor" stroke-width="4" stroke-linecap="round" opacity="0.6" fill="none"/>

  <!-- Network/cloud connection symbol (top) -->
  <ellipse cx="50" cy="12" rx="8" ry="4" fill="currentColor" opacity="0.3"/>
  <path d="M42 12 L42 8 Q42 5 45 5 L55 5 Q58 5 58 8 L58 12" fill="currentColor" opacity="0.3"/>

  <!-- Status indicator dot (connection health) -->
  <circle cx="65" cy="40" r="5" fill="currentColor" opacity="0.9"/>

  <!-- Connection strength bars -->
  <rect x="77" y="65" width="5" height="8" rx="2" fill="currentColor" opacity="0.5"/>
  <rect x="84" y="60" width="5" height="13" rx="2" fill="currentColor" opacity="0.7"/>
  <rect x="91" y="55" width="5" height="18" rx="2" fill="currentColor" opacity="0.9"/>
</svg>
