<svg viewBox="0 0 100 100" xmlns="http://www.w3.org/2000/svg">
  <g fill="none" stroke="currentColor" stroke-width="5" stroke-linecap="round" stroke-linejoin="round">
    <line x1="50" y1="14" x2="50" y2="86"/>
    <line x1="14" y1="50" x2="86" y2="50"/>
    <line x1="24" y1="24" x2="76" y2="76"/>
    <line x1="24" y1="76" x2="76" y2="24"/>
    <line x1="14" y1="50" x2="24" y2="42"/>
    <line x1="14" y1="50" x2="24" y2="58"/>
    <line x1="86" y1="50" x2="76" y2="42"/>
    <line x1="86" y1="50" x2="76" y2="58"/>
    <line x1="50" y1="14" x2="42" y2="24"/>
    <line x1="50" y1="14" x2="58" y2="24"/>
    <line x1="50" y1="86" x2="42" y2="76"/>
    <line x1="50" y1="86" x2="58" y2="76"/>
  </g>
  <path d="M50 70 C54 76, 54 82, 50 86 C46 82, 46 76, 50 70 Z" fill="none" stroke="currentColor" stroke-width="5"/>
</svg>
