<svg viewBox="0 0 100 100" xmlns="http://www.w3.org/2000/svg">
  <!-- Valve body outline -->
  <rect x="20" y="35" width="60" height="30" fill="none" stroke="currentColor" stroke-width="5" rx="5"/>
  
  <!-- Flow direction arrow -->
  <path d="M10 50 L20 50" stroke="currentColor" stroke-width="3" marker-end="url(#arrowhead-solid)"/>
  <path d="M80 50 L95 50" stroke="currentColor" stroke-width="3" marker-end="url(#arrowhead-outline)"/>
  
  <!-- Pulse steps - increasing bar heights representing incremental valve positions -->
  <rect x="25" y="55" width="8" height="10" fill="currentColor"/>
  <rect x="35" y="50" width="8" height="15" fill="currentColor"/>
  <rect x="45" y="45" width="8" height="20" fill="currentColor"/>
  <rect x="55" y="40" width="8" height="25" fill="currentColor"/>
  <rect x="65" y="35" width="8" height="30" fill="currentColor"/>
  
  <!-- Electronic indicator dots -->
  <circle cx="30" cy="25" r="2" fill="currentColor"/>
  <circle cx="40" cy="25" r="2" fill="currentColor"/>
  <circle cx="50" cy="25" r="2" fill="currentColor"/>
  <circle cx="60" cy="25" r="2" fill="currentColor"/>
  <circle cx="70" cy="25" r="2" fill="currentColor"/>
  
  <!-- Arrow marker definitions -->
  <defs>
    <!-- Solid arrowhead for left arrow -->
    <marker id="arrowhead-solid" markerWidth="10" markerHeight="7" refX="9" refY="3.5" orient="auto">
      <polygon points="0 0, 10 3.5, 0 7" fill="currentColor"/>
    </marker>
    <!-- Outline arrowhead for right arrow -->
    <marker id="arrowhead-outline" markerWidth="10" markerHeight="7" refX="9" refY="3.5" orient="auto">
      <polygon points="0 0, 10 3.5, 0 7" fill="none" stroke="currentColor" stroke-width="1"/>
    </marker>
  </defs>
</svg>