<svg viewBox="0 0 24 24" xmlns="http://www.w3.org/2000/svg">
  <!-- Pompbehuizing -->
  <circle cx="12" cy="12" r="9" fill="none" stroke="currentColor" stroke-width="1.5"
          stroke-linecap="round"/>
  <!-- Waaierblad 1 -->
  <path d="M12 12 C13.5 11 15.5 9.5 15 7.5 C14.5 5.5 12 5.5 11 7 C10.5 8 11 10 12 12Z"
        fill="currentColor" stroke="none" fill-opacity="0.9"/>
  <!-- Waaierblad 2 (120°) -->
  <path d="M12 12 C13.5 11 15.5 9.5 15 7.5 C14.5 5.5 12 5.5 11 7 C10.5 8 11 10 12 12Z"
        fill="currentColor" stroke="none" fill-opacity="0.9"
        transform="rotate(120 12 12)"/>
  <!-- Waaierblad 3 (240°) -->
  <path d="M12 12 C13.5 11 15.5 9.5 15 7.5 C14.5 5.5 12 5.5 11 7 C10.5 8 11 10 12 12Z"
        fill="currentColor" stroke="none" fill-opacity="0.9"
        transform="rotate(240 12 12)"/>
  <!-- Centrale as -->
  <circle cx="12" cy="12" r="2" fill="currentColor" stroke="none"/>
</svg>
