<svg viewBox="0 0 24 24" xmlns="http://www.w3.org/2000/svg">
  <!-- Meetvenster -->
  <rect x="2" y="6" width="15" height="12" rx="1.2"
        fill="none" stroke="currentColor" stroke-width="1" opacity="0.4"/>
  <!-- Stroomgolf 1 -->
  <path d="M 4 9.5 C 4.5 9 5 9 5.5 9.5 C 6 10 6.5 10 7 9.5 C 7.5 9 8 9 8.5 9.5 C 9 10 9.5 10 10 9.5 C 10.5 9 11 9 11.5 9.5 C 12 10 12.5 10 13 9.5 C 13.5 9 14 9 14.5 9.5"
        stroke="currentColor" stroke-width="1.3" fill="none" stroke-linecap="round"/>
  <!-- Stroomgolf 2 -->
  <path d="M 4 12 C 4.5 11.5 5 11.5 5.5 12 C 6 12.5 6.5 12.5 7 12 C 7.5 11.5 8 11.5 8.5 12 C 9 12.5 9.5 12.5 10 12 C 10.5 11.5 11 11.5 11.5 12 C 12 12.5 12.5 12.5 13 12 C 13.5 11.5 14 11.5 14.5 12"
        stroke="currentColor" stroke-width="1.3" fill="none" stroke-linecap="round"/>
  <!-- Stroomgolf 3 -->
  <path d="M 4 14.5 C 4.5 14 5 14 5.5 14.5 C 6 15 6.5 15 7 14.5 C 7.5 14 8 14 8.5 14.5 C 9 15 9.5 15 10 14.5 C 10.5 14 11 14 11.5 14.5 C 12 15 12.5 15 13 14.5 C 13.5 14 14 14 14.5 14.5"
        stroke="currentColor" stroke-width="1.3" fill="none" stroke-linecap="round"/>
  <!-- L/min label -->
  <text x="21" y="13" text-anchor="middle" font-family="Arial, sans-serif"
        font-size="3.5" font-weight="bold" fill="currentColor">L/min</text>
</svg>
